<?xml version="1.0" encoding="utf-8"?>
<!-- Generator: Adobe Illustrator 19.0.0, SVG Export Plug-In . SVG Version: 6.00 Build 0)  -->
<svg version="1.1" id="Layer_1" xmlns="http://www.w3.org/2000/svg" xmlns:xlink="http://www.w3.org/1999/xlink" x="0px" y="0px"
	 viewBox="0 0 612 612" style="enable-background:new 0 0 612 612;" xml:space="preserve">
<style type="text/css">
	.st0{fill:url(#XMLID_7_);}
	.st1{fill:#FFFFFF;}
</style>
<linearGradient id="XMLID_7_" gradientUnits="userSpaceOnUse" x1="31.5753" y1="290.0437" x2="595.0675" y2="290.0437">
	<stop  offset="0" style="stop-color:#2892CC"/>
	<stop  offset="0.5026" style="stop-color:#0BB4CB"/>
	<stop  offset="1" style="stop-color:#75BEB9"/>
</linearGradient>
<circle id="XMLID_4_" class="st0" cx="313.3" cy="290" r="281.7"/>
<g>
	<path class="st1" d="M315.3,518.3c-70.3,0-127.5-57.2-127.5-127.5c0-74.7,117.1-288,122.1-297c1.1-1.9,3.1-3.2,5.3-3.2
		c0,0,0.1,0,0.1,0c2.2,0,4.2,1.1,5.3,3c5,8.4,122.2,206.1,122.2,297.2C442.8,461.1,385.6,518.3,315.3,518.3z M315.5,109.3
		c-23.1,43-115.4,218.6-115.4,281.5c0,63.5,51.7,115.2,115.2,115.2s115.2-51.7,115.2-115.2C430.5,314,339.1,150.3,315.5,109.3z"/>
</g>
<g>
	<path id="XMLID_1_" class="st1" d="M332.3,479.9c-4.6,0-9-2.6-11.1-7c-2.9-6.1-0.3-13.5,5.8-16.5c34.9-16.7,59.7-67.4,59.9-67.9
		c3-6.1,10.4-8.7,16.5-5.7c6.1,3,8.7,10.3,5.7,16.5c-1.2,2.4-28.9,59.1-71.5,79.4C335.9,479.5,334.1,479.9,332.3,479.9z"/>
</g>
</svg>
