<?xml version="1.0" encoding="utf-8"?>
<!-- Generator: Adobe Illustrator 19.0.0, SVG Export Plug-In . SVG Version: 6.00 Build 0)  -->
<svg version="1.1" id="Layer_1" xmlns="http://www.w3.org/2000/svg" xmlns:xlink="http://www.w3.org/1999/xlink" x="0px" y="0px"
	 viewBox="0 0 612 612" style="enable-background:new 0 0 612 612;" xml:space="preserve">
<style type="text/css">
	.st0{fill:url(#XMLID_11_);}
	.st1{fill:none;}
	.st2{fill:#FFFFFF;}
</style>
<linearGradient id="XMLID_11_" gradientUnits="userSpaceOnUse" x1="15.4454" y1="306.1736" x2="615.4455" y2="306.1736">
	<stop  offset="0" style="stop-color:#2892CC"/>
	<stop  offset="0.5026" style="stop-color:#0BB4CB"/>
	<stop  offset="1" style="stop-color:#75BEB9"/>
</linearGradient>
<circle id="XMLID_9_" class="st0" cx="315.4" cy="306.2" r="300"/>
<g>
	<path id="XMLID_8_" class="st1" d="M181.7,419c28.5-17.7,32-16.8,34.3-16.3c1.6,0.4,4-3.9,4.9-7c0-0.2,8.1-32.6,9.7-58.1
		c1.2-18.7,8.3-29.4,14.1-38c2.8-4.1,5.2-7.7,6.6-11.6c2.8-7.4,10.5-25.1,17.3-40.8c5.1-11.6,9.8-22.6,10.5-24.6
		c1.6-4.8,10.4-10.5,18.7-12.1c1.5-0.3,3-0.4,4.5-0.5c0.2-18.6-3-24.4-4.4-26c-2.4-2.8-5.8-3.9-10.2-3.4c-7.2,0.9-13.3,5.6-14,7
		c-0.7,2.1-4.5,11-10.7,25.2c-6.8,15.6-14.4,33.2-17.1,40.4c-1.8,4.8-4.6,8.9-7.5,13.3c-5.5,8.2-11.7,17.4-12.7,33.9
		c-1.6,26.3-9.6,58.4-9.9,59.7c-1.6,5.7-6.5,14.6-14.5,12.9c-5.2,0.6-32.2,17-54.4,32.1l-0.2,0.1c-2.9,1.7-4.7,3.6-4.8,5
		c-0.1,1.1,1.1,2.3,1.1,2.3c0,0,9,7,22.1,17.1C169.8,426.6,175.7,422.8,181.7,419z"/>
	<path id="XMLID_7_" class="st1" d="M323.1,262.3l69.8-91.6c0.9-1.1,8.6-10.2,18.5-9.6c4.1,0.2,7.8,2.1,11,5.4
		c3.6-4,10.1-9.4,19.1-10.7l3.9-6.4c2-2.6,3.6-9.6,1.4-15.2c-1.7-4.2-5.1-6.8-10.3-7.8c-14.9-2.7-23.3,10.6-23.6,11.2l-3.4,5.6
		l-3.5-5.5c-2.5-3.9-5.2-5.9-8-6.1c-4.9-0.3-10.1,4.7-11.6,6.5l-64.9,85.2l-0.6-0.5C324.4,233.3,324,250.1,323.1,262.3z"/>
	<path id="XMLID_6_" class="st1" d="M483.8,242c-4.4-3.3-8.7-1.3-8.9-1.2l-14.1,6.6l9-12.7c8.3-11.6,13.1-20.5,14.7-27.1
		c1.5-6.2,0.3-10.1-3.9-13.1c-8.9-6.4-16.4-1.7-16.7-1.5l-19,12.1l13.5-18c2-2.6,3.6-9.6,1.4-15.2c-1.7-4.2-5.1-6.8-10.3-7.8
		c-15.1-2.7-23.5,11-23.6,11.2l-3.4,5.7l-3.6-5.6c-2.5-3.9-5.2-5.9-8-6.1c-4.8-0.3-10.1,4.7-11.6,6.5l-88.1,115.7l2.2-15.6
		c2.4-17,3.9-46.8-2.3-54.1c-2.4-2.8-5.8-3.9-10.2-3.4c-7.2,0.9-13.3,5.6-14,7c-0.7,2.1-4.5,11-10.7,25.2
		c-6.8,15.6-14.4,33.2-17.1,40.4c-1.8,4.8-4.6,8.9-7.5,13.3c-5.5,8.2-11.7,17.4-12.7,33.9c-1.6,26.3-9.6,58.4-9.9,59.7
		c-1.6,5.7-6.4,14.6-14.5,12.9c-5.2,0.6-32.2,17-54.4,32.1l-0.2,0.1c-2.9,1.7-4.7,3.6-4.8,5c-0.1,1.2,1.1,2.3,1.1,2.3
		c1.1,0.9,116.3,90.1,125.9,96.5c5.9,3.9,9.7,0.5,10.7-0.5l32.3-61.5l-6-3l-0.5,0.8l-8.3-5.2l-0.6-0.3l0.1,0l-61.2-38.3l7-11.1
		l66,41.2c7.7-5,22.2-13.6,42-22.4c29.6-13.2,47.1-56.4,50.3-64.9c3.2-8.6,21.6-38.1,39.4-66.7c10.2-16.4,19.8-31.8,24.7-40.4
		C492.6,248.6,486,243.7,483.8,242z"/>
	<path class="st2" d="M488.7,235.5c-2.5-1.9-5-2.8-7.2-3.2c11.1-16.9,18.2-34.2,3.9-44.3c-6.3-4.5-12.2-5.3-16.8-4.8
		c0.8-4.4,0.7-9.5-1.2-14.2c-1.9-4.8-6.3-11-16.5-12.9c0,0-0.1,0-0.1,0l1.1-1.9c3.6-5,5.6-14.6,2.3-23c-1.9-4.8-6.3-11-16.5-12.9
		c-14.2-2.6-23.8,5.1-28.6,10.5c-3.2-3.3-6.9-5.2-11-5.4c-9.9-0.6-17.6,8.5-18.5,9.6l-63.1,82.8c-1.8-1.9-3.8-3.3-6.1-4.2
		c0.3-16.7-1.8-27.5-6.4-32.8c-4.6-5.3-11.5-7.4-19.4-5.9c-8.4,1.6-17.1,7.3-18.7,12.1c-0.7,2-5.4,13-10.5,24.6
		c-6.8,15.7-14.5,33.4-17.3,40.8c-1.5,3.9-3.8,7.4-6.6,11.6c-5.8,8.6-13,19.3-14.1,38c-1.6,25.5-9.6,57.9-9.7,58.1
		c-0.8,2.7-3.2,7.5-4.9,7c-2.3-0.6-5.8-1.4-34.3,16.3c-12.8,8-25.1,16.2-26.3,17c-5.4,3.3-8.4,7.1-8.6,11.4
		c-0.4,5.4,3.7,8.8,4.2,9.3c0,0,8,6.2,19.9,15.4c-1.3,0.9-2.2,1.5-2.4,1.6c-5.4,3.3-8.4,7.1-8.6,11.4c-0.4,5.4,3.7,8.8,4.2,9.3
		c4.8,3.7,116.6,90.3,126.4,96.9c3.5,2.4,6.9,3.3,9.8,3.3c5.6,0,10-3.2,12-5.7l36.8-69.9l-10.6-5.3c7.4-4.8,21.8-13.4,41.1-22
		c32.6-14.5,51.2-60.4,54.6-69.5c2.9-7.8,22.8-39.6,38.7-65.2c10.2-16.4,19.9-32,24.9-40.7C492.8,264.7,501.8,245.2,488.7,235.5z
		 M321.3,223.2l64.9-85.2c1.5-1.8,6.7-6.8,11.6-6.5c2.9,0.2,5.6,2.2,8,6.1l3.5,5.5l3.4-5.6c0.3-0.6,8.7-13.9,23.6-11.2
		c5.2,0.9,8.7,3.6,10.3,7.8c2.2,5.6,0.6,12.6-1.4,15.2l-3.9,6.4c-9,1.3-15.5,6.7-19.1,10.7c-3.2-3.3-6.9-5.2-11-5.4
		c-9.9-0.6-17.6,8.5-18.5,9.6l-69.8,91.6c0.9-12.2,1.3-29-2.4-39.5L321.3,223.2z M143,412.6c0,0-1.2-1.1-1.1-2.3
		c0.1-1.4,1.9-3.2,4.8-5l0.2-0.1c22.3-15.1,49.2-31.5,54.4-32.1c8,1.7,12.8-7.2,14.5-12.9c0.3-1.4,8.3-33.4,9.9-59.7
		c1-16.5,7.3-25.7,12.7-33.9c2.9-4.4,5.7-8.5,7.5-13.3c2.7-7.2,10.4-24.8,17.1-40.4c6.2-14.2,10-23.1,10.7-25.2
		c0.7-1.4,6.8-6.2,14-7c4.4-0.5,7.8,0.6,10.2,3.4c1.4,1.7,4.6,7.5,4.4,26c-1.5,0-2.9,0.2-4.5,0.5c-8.4,1.6-17.1,7.3-18.7,12.1
		c-0.7,2-5.4,13-10.5,24.6c-6.8,15.7-14.5,33.4-17.3,40.8c-1.5,3.9-3.8,7.4-6.6,11.6c-5.8,8.6-13,19.3-14.1,38
		c-1.6,25.5-9.6,57.9-9.7,58.1c-0.9,3.1-3.3,7.4-4.9,7c-2.3-0.6-5.8-1.4-34.3,16.3c-6,3.7-11.9,7.6-16.6,10.6
		C152,419.5,143.1,412.6,143,412.6z M477.8,274.4c-4.9,8.6-14.5,24-24.7,40.4c-17.8,28.6-36.2,58.1-39.4,66.7
		c-3.2,8.5-20.6,51.7-50.3,64.9c-19.7,8.8-34.2,17.4-42,22.4l-66-41.2l-7,11.1l61.2,38.3l-0.1,0l0.6,0.3l7.4,4l1.4,0.4l0,0
		c3.3,1.6,4.6,5.7,2.9,8.9l-29.2,55.5c-1,1.1-4.8,4.5-10.7,0.5c-9.6-6.4-124.8-95.6-125.9-96.5c0,0-1.2-1.1-1.1-2.3
		c0.1-1.4,1.9-3.2,4.8-5l0.2-0.1c22.3-15.1,49.2-31.5,54.4-32.1c8,1.7,12.8-7.2,14.5-12.9c0.3-1.4,8.3-33.4,9.9-59.7
		c1-16.5,7.3-25.7,12.7-33.9c2.9-4.4,5.7-8.5,7.5-13.3c2.7-7.2,10.4-24.8,17.1-40.4c6.2-14.2,10-23.1,10.7-25.2
		c0.7-1.4,6.8-6.2,14-7c4.4-0.5,7.8,0.6,10.2,3.4c6.3,7.3,4.8,37.1,2.3,54.1l-2.2,15.6l88.1-115.7c1.5-1.8,6.7-6.8,11.6-6.5
		c2.9,0.2,5.6,2.2,8,6.1l3.6,5.6l3.4-5.7c0.1-0.1,8.5-13.9,23.6-11.2c5.2,0.9,8.7,3.6,10.3,7.8c2.2,5.6,0.6,12.6-1.4,15.2l-13.5,18
		l19-12.1c0.3-0.2,7.8-4.8,16.7,1.5c4.3,3,5.4,7,3.9,13.1c-1.6,6.6-6.4,15.4-14.7,27.1l-9,12.7l14.1-6.6c0.2-0.1,4.5-2,8.9,1.2
		C486,243.7,492.6,248.6,477.8,274.4z"/>
</g>
</svg>
