<?xml version="1.0" encoding="utf-8"?>
<!-- Generator: Adobe Illustrator 19.0.0, SVG Export Plug-In . SVG Version: 6.00 Build 0)  -->
<svg version="1.1" id="Layer_1" xmlns="http://www.w3.org/2000/svg" xmlns:xlink="http://www.w3.org/1999/xlink" x="0px" y="0px"
	 viewBox="10 -40 600 600" style="enable-background:new 0 0 612 612;" xml:space="preserve">
<style type="text/css">
	.st0{fill:none;}
	.st1{fill:#FFFFFF;}
</style>
<g>
	<path id="XMLID_10_" class="st0" d="M301.7,223.9c46.5,0,84.4-42.4,84.4-94.4S348.2,35,301.7,35s-84.4,42.4-84.4,94.4
		S255.1,223.9,301.7,223.9z"/>
	<path id="XMLID_9_" class="st0" d="M111.8,271.1c-46.5,0-84.4,42.4-84.4,94.4S65.2,460,111.8,460s84.4-42.4,84.4-94.4
		S158.3,271.1,111.8,271.1z"/>
	<path id="XMLID_8_" class="st0" d="M491.6,271.1c-46.5,0-84.4,42.4-84.4,94.4S445,460,491.6,460s84.4-42.4,84.4-94.4
		S538.1,271.1,491.6,271.1z"/>
	<path id="XMLID_7_" class="st0" d="M421.1,277.9l-47.7-62.2c-18.9,19.7-44,31.8-71.8,31.8s-52.9-12.1-71.8-31.8l-47.7,62.2
		c21.5,21.6,35,52.8,35,87.6c0,8.1-0.7,16-2.1,23.6h173c-1.4-7.6-2.1-15.5-2.1-23.6C386.1,330.8,399.7,299.5,421.1,277.9z"/>
	<path class="st1" d="M491.6,247.5c-19.5,0-37.7,6.1-53.4,16.4l-50.6-66.1c12.3-19.3,19.7-42.9,19.7-68.4
		c0-65.1-47.3-118.1-105.5-118.1s-105.5,53-105.5,118.1c0,25.5,7.3,49.1,19.7,68.4l-50.6,66.1c-15.7-10.4-33.9-16.4-53.4-16.4
		c-58.2,0-105.5,53-105.5,118.1s47.3,118.1,105.5,118.1c43.2,0,80.3-29.2,96.6-70.8h186.5c16.3,41.6,53.5,70.8,96.6,70.8
		c58.2,0,105.5-53,105.5-118.1S549.7,247.5,491.6,247.5z M301.7,35c46.5,0,84.4,42.4,84.4,94.4s-37.9,94.4-84.4,94.4
		s-84.4-42.4-84.4-94.4S255.1,35,301.7,35z M111.8,460c-46.5,0-84.4-42.4-84.4-94.4s37.9-94.4,84.4-94.4s84.4,42.4,84.4,94.4
		S158.3,460,111.8,460z M215.2,389.2c1.4-7.6,2.1-15.5,2.1-23.6c0-34.8-13.6-66-35-87.6l47.7-62.2c18.9,19.7,44,31.8,71.8,31.8
		s52.9-12.1,71.8-31.8l47.7,62.2c-21.5,21.6-35,52.8-35,87.6c0,8.1,0.7,16,2.1,23.6H215.2z M491.6,460c-46.5,0-84.4-42.4-84.4-94.4
		s37.9-94.4,84.4-94.4s84.4,42.4,84.4,94.4S538.1,460,491.6,460z"/>
</g>
</svg>
