<?xml version="1.0" encoding="utf-8"?>
<!-- Generator: Adobe Illustrator 19.0.0, SVG Export Plug-In . SVG Version: 6.00 Build 0)  -->
<svg version="1.1" id="Layer_1" xmlns="http://www.w3.org/2000/svg" xmlns:xlink="http://www.w3.org/1999/xlink" x="0px" y="0px"
	 viewBox="0 0 612 612" style="enable-background:new 0 0 612 612;" xml:space="preserve">
<style type="text/css">
	.st0{fill:#FFFFFF;}
</style>
<g id="XMLID_26_">
	<path id="XMLID_27_" class="st0" d="M418,395.7c-38.3,0-69.4-31.1-69.4-69.4s31.1-69.4,69.4-69.4s69.4,31.1,69.4,69.4
		S456.3,395.7,418,395.7z M418,284.7c-23,0-41.6,18.7-41.6,41.6c0,23,18.7,41.6,41.6,41.6c23,0,41.6-18.7,41.6-41.6
		C459.7,303.4,441,284.7,418,284.7z"/>
</g>
<g id="XMLID_22_">
	<path id="XMLID_23_" class="st0" d="M209.8,395.7c-38.3,0-69.4-31.1-69.4-69.4s31.1-69.4,69.4-69.4s69.4,31.1,69.4,69.4
		S248.1,395.7,209.8,395.7z M209.8,284.7c-23,0-41.6,18.7-41.6,41.6c0,23,18.7,41.6,41.6,41.6s41.6-18.7,41.6-41.6
		C251.5,303.4,232.8,284.7,209.8,284.7z"/>
</g>
<g id="XMLID_18_">
	<path id="XMLID_19_" class="st0" d="M598.4,590H15.6V145.9h582.9V590z M43.3,562.3h527.4V173.7H43.3V562.3z"/>
</g>
<g id="XMLID_16_">
	<rect id="XMLID_3_" x="29.4" y="479" class="st0" width="555.1" height="27.8"/>
</g>
<g id="XMLID_14_">
	<polygon id="XMLID_2_" class="st0" points="298.5,170.8 118.1,32 135,10 315.5,148.8 	"/>
</g>
<g id="XMLID_12_">
	<polygon id="XMLID_1_" class="st0" points="315.5,170.8 298.5,148.8 479,10 495.9,32 	"/>
</g>
</svg>
