<?xml version="1.0" encoding="utf-8"?>
<!-- Generator: Adobe Illustrator 19.0.0, SVG Export Plug-In . SVG Version: 6.00 Build 0)  -->
<svg version="1.1" id="Layer_1" xmlns="http://www.w3.org/2000/svg" xmlns:xlink="http://www.w3.org/1999/xlink" x="0px" y="0px"
	 viewBox="154 -15 352 352" style="enable-background:new 0 0 400 400;" xml:space="preserve">
<style type="text/css">
	.st0{fill:#FFFFFF;}
</style>
<g id="XMLID_12_">
	<path id="XMLID_13_" class="st0" d="M496.3,334.1H146.8V110.6L321.5,0l174.8,110.6V334.1z M163.6,317.3h315.9V119.8l-158-99.9
		l-158,99.9V317.3z"/>
</g>
<g id="XMLID_8_">
	<path id="XMLID_9_" class="st0" d="M319.3,279c-47.4,0-85.9-38.5-85.9-85.9s38.5-85.9,85.9-85.9s85.9,38.5,85.9,85.9
		S366.6,279,319.3,279z M319.3,124.1c-38.1,0-69.1,31-69.1,69.1c0,38.1,31,69.1,69.1,69.1c38.1,0,69.1-31,69.1-69.1
		C388.3,155,357.4,124.1,319.3,124.1z"/>
</g>
</svg>
