<?xml version="1.0" encoding="utf-8"?>
<!-- Generator: Adobe Illustrator 19.0.0, SVG Export Plug-In . SVG Version: 6.00 Build 0)  -->
<svg version="1.1" id="Layer_1" xmlns="http://www.w3.org/2000/svg" xmlns:xlink="http://www.w3.org/1999/xlink" x="0px" y="0px"
	 viewBox="0 0 612 612" style="enable-background:new 0 0 612 612;" xml:space="preserve">
<style type="text/css">
	.st0{fill:url(#XMLID_10_);}
	.st1{fill:#FFFFFF;}
</style>
<linearGradient id="XMLID_10_" gradientUnits="userSpaceOnUse" x1="18.0609" y1="310.947" x2="593.0292" y2="310.947">
	<stop  offset="0" style="stop-color:#2892CC"/>
	<stop  offset="0.5026" style="stop-color:#0BB4CB"/>
	<stop  offset="1" style="stop-color:#75BEB9"/>
</linearGradient>
<circle id="XMLID_8_" class="st0" cx="305.5" cy="310.9" r="287.5"/>
<g>
	<path class="st1" d="M206.5,241c24.7,0,44.8-20.1,44.8-44.8s-20.1-44.8-44.8-44.8s-44.8,20.1-44.8,44.8S181.8,241,206.5,241z
		 M206.5,158.9c20.6,0,37.3,16.7,37.3,37.3s-16.7,37.3-37.3,37.3s-37.3-16.7-37.3-37.3S185.9,158.9,206.5,158.9z"/>
	<path class="st1" d="M415.4,241c24.7,0,44.8-20.1,44.8-44.8s-20.1-44.8-44.8-44.8c-24.7,0-44.8,20.1-44.8,44.8S390.7,241,415.4,241
		z M415.4,158.9c20.6,0,37.3,16.7,37.3,37.3s-16.7,37.3-37.3,37.3c-20.6,0-37.3-16.7-37.3-37.3S394.8,158.9,415.4,158.9z"/>
	<path class="st1" d="M518.7,335.4l-63.4-63.4c-1.1-1.1-2.9-1.4-4.3-0.7c-1.4,0.7-2.2,2.3-2,3.9l21.7,133.7h-107l18.1-133.8
		c0.2-1.6-0.6-3.1-2-3.8c-1.4-0.7-3.1-0.5-4.3,0.6l-60.9,57.3l-60.9-57.3c-1.1-1-2.7-1.3-4-0.7c-1.4,0.6-2.3,1.9-2.3,3.4v74.6h-85.8
		v-74.6c0-1.5-0.9-2.8-2.3-3.4c-1.4-0.6-3-0.3-4,0.7l-67.1,63.4c-1.5,1.4-1.6,3.8-0.1,5.3c1.4,1.5,3.8,1.6,5.3,0.1l60.9-57.5v121.9
		c0,2.1,1.7,3.7,3.7,3.7h22.4v56c0,2.1,1.7,3.7,3.7,3.7s3.7-1.7,3.7-3.7v-56h33.6v57.8c0,2.1,1.7,3.7,3.7,3.7s3.7-1.7,3.7-3.7v-57.8
		h22.4c2.1,0,3.7-1.7,3.7-3.7V283.2l57.1,53.8c1.4,1.3,3.7,1.3,5.1,0l55.8-52.5l-17.2,127.6c-0.1,1.1,0.2,2.1,0.9,3
		c0.7,0.8,1.7,1.3,2.8,1.3h29.8v50.4c0,2.1,1.7,3.7,3.7,3.7s3.7-1.7,3.7-3.7v-50.4H434v50.4c0,2.1,1.7,3.7,3.7,3.7s3.7-1.7,3.7-3.7
		v-50.4h33.6c1.1,0,2.1-0.5,2.8-1.3c0.7-0.8,1-1.9,0.8-3l-20.5-126.6l55.3,55.2c1.5,1.5,3.8,1.5,5.3,0S520.2,336.8,518.7,335.4z
		 M161.7,401.4v-44.8h85.8v44.8H161.7z"/>
</g>
</svg>
