<?xml version="1.0" encoding="utf-8"?>
<!-- Generator: Adobe Illustrator 19.0.0, SVG Export Plug-In . SVG Version: 6.00 Build 0)  -->
<svg version="1.1" id="Layer_1" xmlns="http://www.w3.org/2000/svg" xmlns:xlink="http://www.w3.org/1999/xlink" x="0px" y="0px"
	 viewBox="0 0 612 612" style="enable-background:new 0 0 612 612;" xml:space="preserve">
<style type="text/css">
	.st0{fill:rgb(59,255,255);}
</style>
<g>
	<path class="st0" d="M318.3,357.3c-59.8,0-108.5-48.7-108.5-108.5s48.7-108.5,108.5-108.5S426.8,189,426.8,248.8
		S378.1,357.3,318.3,357.3z M318.3,168.2c-44.5,0-80.6,36.2-80.6,80.6s36.2,80.6,80.6,80.6s80.6-36.2,80.6-80.6
		S362.8,168.2,318.3,168.2z"/>
</g>
<g>
	<path class="st0" d="M589.4,589.5L445.6,481.6l-134.3,97.3l-132-97.3l-146,107.6V19.4h556.2V589.5z M179.3,447.1l132.2,97.4
		l134.5-97.4l115.7,86.8V47.2H61.1v486.9L179.3,447.1z"/>
</g>
</svg>
