<?xml version="1.0" encoding="utf-8"?>
<!-- Generator: Adobe Illustrator 19.0.0, SVG Export Plug-In . SVG Version: 6.00 Build 0)  -->
<svg version="1.1" id="Layer_1" xmlns="http://www.w3.org/2000/svg" xmlns:xlink="http://www.w3.org/1999/xlink" x="0px" y="0px"
	 viewBox="0 0 612 612" style="enable-background:new 0 0 612 612;" xml:space="preserve">
<style type="text/css">
	.st0{fill:url(#XMLID_8_);}
	.st1{fill:#FFFFFF;}
</style>
<linearGradient id="XMLID_8_" gradientUnits="userSpaceOnUse" x1="30.4715" y1="295.6476" x2="584.0428" y2="295.6476">
	<stop  offset="0" style="stop-color:#2892CC"/>
	<stop  offset="0.5026" style="stop-color:#0BB4CB"/>
	<stop  offset="1" style="stop-color:#75BEB9"/>
</linearGradient>
<circle id="XMLID_3_" class="st0" cx="307.3" cy="295.6" r="276.8"/>
<g id="XMLID_4_">
	<path id="XMLID_6_" class="st1" d="M425.4,179.4c-5.9-5.9-13.7-9.1-22-9.1c-8.7,0-16.5,3.5-22.1,9.3v-6.1c0-8.3-3.2-16.1-9.2-22
		c-5.9-5.9-13.7-9.1-22-9.1c-8.7,0-16.5,3.5-22.1,9.3v-7.9c0-8.3-3.2-16.1-9.2-22c-6.4-6.4-15.2-9.7-24.2-9.1
		c-16.3,1.1-29,15-29,31.7v5.5c0,0-0.1-0.1-0.1-0.1c-6.4-6.4-15.2-9.7-24.2-9.1c-16.3,1.1-29,15-29,31.7v105.2l-5.4-10.9
		c-5.2-10.5-16.2-17.3-28-17.3c-4.8,0-9.4,1.1-13.8,3.2c-15.4,7.6-21.7,26.4-14.1,41.8l46.2,93.3c2.3,5.4,4.9,10.7,7.8,15.8l0,0
		l0.1,0.1c20.2,35.1,54.5,60,93.9,68.4c9.7,2.1,19.8,3.1,29.9,3.1c19.6,0,38.5-3.9,56.4-11.6c30-12.9,49.4-42.4,49.4-75.2V201.4
		C434.5,193.1,431.3,185.3,425.4,179.4z M425.5,388.1c0,29.2-17.2,55.4-43.9,66.9c-16.7,7.2-34.5,10.8-52.8,10.8
		c-9.4,0-18.9-1-28-2.9c-36.9-7.9-69-31.2-87.9-64L159,290.1c-5.4-10.9-0.9-24.3,10-29.7c3.1-1.5,6.3-2.3,9.8-2.3
		c8.4,0,16.2,4.8,19.9,12.3l13.8,27.9c0.9,1.9,3,3,5.1,2.5l3.6-0.8V172.2c0-11.9,9-21.9,20.6-22.7c6.4-0.5,12.6,1.9,17.2,6.4
		c4.2,4.2,6.5,9.8,6.5,15.6v107.1h9V171.6v-0.5v-27c0-11.9,9-21.9,20.6-22.7c6.4-0.4,12.6,1.9,17.2,6.4c4.2,4.2,6.5,9.8,6.5,15.6
		V173v0.5v124.3h9l0-124.3c0-12.2,9.9-22.1,22.1-22.1c5.9,0,11.4,2.3,15.6,6.5c4.2,4.2,6.5,9.8,6.5,15.6V201v0.5v77.3h9v-77.3
		c0-12.2,9.9-22.1,22.1-22.1c5.9,0,11.4,2.3,15.6,6.5c4.2,4.2,6.5,9.8,6.5,15.6L425.5,388.1z"/>
</g>
</svg>
